<?xml version="1.0" encoding="UTF-8"?>
<svg version="1.1" xmlns="http://www.w3.org/2000/svg" width="4008" height="700">
<path d="M0 0 C1.72791751 -0.00158954 3.4558344 -0.00405458 5.18374956 -0.00731641 C9.91910431 -0.01371554 14.65437325 -0.00767268 19.38972235 0.00044787 C24.50252901 0.00703701 29.61532627 0.00207353 34.72813416 -0.00143433 C44.74302844 -0.00647363 54.75788966 -0.00083677 64.77277984 0.00841597 C76.45101073 0.01881571 88.12923452 0.0187293 99.80746917 0.01824339 C120.6635944 0.01774276 141.51970429 0.02690183 162.37582397 0.04142761 C182.57667317 0.05548961 202.77750887 0.06259944 222.97836304 0.06193542 C224.84159757 0.06187549 224.84159757 0.06187549 226.7424732 0.06181435 C227.98255197 0.06177399 229.22263074 0.06173364 230.50028765 0.06169206 C253.53280051 0.06100006 276.56530767 0.06690792 299.59781868 0.07584528 C307.72038054 0.07884919 315.84294134 0.07992339 323.96550369 0.08037758 C333.88776047 0.08106365 343.81000765 0.08558196 353.73226036 0.09471039 C358.78619058 0.09929175 363.84010863 0.10238764 368.89404106 0.10111618 C420.17449528 0.09113958 420.17449528 0.09113958 440.08969116 2.49723816 C441.16525269 2.62654724 442.24081421 2.75585632 443.34896851 2.88908386 C497.96402696 9.85925755 548.57841095 36.50202306 582.71469116 80.30973816 C599.12434932 102.08838638 610.85178523 127.47180083 616.08969116 154.24723816 C616.27297974 155.11405212 616.45626831 155.98086609 616.64511108 156.87394714 C618.37525847 165.85028659 618.44627015 174.7043629 618.40219116 183.80973816 C618.40003601 184.60848358 618.39788086 185.407229 618.3956604 186.23017883 C618.34410715 198.12959366 617.96127215 209.64481256 615.08969116 221.24723816 C614.8910144 222.07111023 614.69233765 222.8949823 614.48764038 223.74382019 C607.40022999 252.36421675 594.54419242 279.34734879 574.26547241 300.91911316 C572.57035305 302.7329213 570.99722581 304.54953526 569.46469116 306.49723816 C566.31083511 310.14907148 562.77646532 313.14615555 559.08969116 316.24723816 C558.23633179 316.9884491 557.38297241 317.72966003 556.50375366 318.49333191 C543.42079082 329.69449872 529.37959387 339.31565021 514.08969116 347.24723816 C512.93726929 347.85051941 511.78484741 348.45380066 510.59750366 349.07536316 C474.21181482 367.06561466 433.85020758 370.74666501 393.85141265 370.63600087 C390.09764705 370.62905267 386.34392095 370.63981209 382.59016418 370.64828491 C376.11908767 370.66071277 369.64807797 370.66287266 363.17699242 370.65792847 C353.80515056 370.65104897 344.43340732 370.66376071 335.0615832 370.68143564 C319.82608381 370.70992901 304.5905952 370.72755741 289.35507202 370.73600769 C287.9940892 370.73676846 287.9940892 370.73676846 286.60561178 370.7375446 C279.2392265 370.74157895 271.87284098 370.74507584 264.50645542 370.74854183 C258.0474655 370.75160193 251.58847573 370.75487377 245.12948608 370.75846863 C243.7642891 370.75922255 243.7642891 370.75922255 242.37151238 370.75999171 C227.16847599 370.76875065 211.96547671 370.78920749 196.7624653 370.81795073 C187.41726419 370.83505751 178.07216841 370.84174869 168.72695372 370.83464468 C162.32901088 370.8304499 155.93113442 370.83686462 149.53320702 370.85144341 C145.85118923 370.85945666 142.16933639 370.86268814 138.48731995 370.85262108 C113.26667402 370.320066 113.26667402 370.320066 89.58969116 377.99723816 C88.9180896 378.35084412 88.24648804 378.70445007 87.55453491 379.06877136 C74.97396637 385.92992047 67.30425699 398.72252974 63.08969116 412.24723816 C61.6835593 418.10118033 61.90367031 423.95829697 61.90438843 429.94743347 C61.90221256 431.97727266 61.88405825 434.00655816 61.86508179 436.03630066 C61.80625938 450.04722553 61.80625938 450.04722553 68.08969116 462.24723816 C73.29272384 467.27085592 80.39490298 467.54282027 87.28052521 467.50057125 C88.08102055 467.50366852 88.88151589 467.5067658 89.70626867 467.50995693 C92.38741337 467.51791522 95.06833452 467.5116775 97.7494812 467.50552368 C99.69173942 467.50837865 101.63399651 467.51211684 103.57625151 467.51666218 C108.91303991 467.52664725 114.24976261 467.52426859 119.58655596 467.51993525 C125.34274605 467.51745999 131.09891882 467.52652625 136.85510254 467.53431702 C146.83133745 467.54636586 156.80755638 467.55147017 166.78379822 467.55219841 C181.89005768 467.55358515 196.99627664 467.57036374 212.1025215 467.59033473 C218.16794384 467.59827533 224.23336689 467.60566892 230.29878998 467.61301517 C231.30959806 467.6142418 231.30959806 467.6142418 232.3408265 467.61549321 C248.37853043 467.63482947 264.41623821 467.64837024 280.45394897 467.66056824 C281.15557314 467.66110503 281.8571973 467.66164182 282.5800828 467.66219488 C298.94221204 467.67468434 315.30434175 467.68546524 331.66647339 467.69425964 C337.33847047 467.69732955 343.01046754 467.70042191 348.6824646 467.70353699 C349.73250624 467.70410971 349.73250624 467.70410971 350.80376083 467.704694 C366.79792891 467.71346319 382.79208889 467.72463618 398.78624725 467.74466801 C399.45925517 467.74551067 400.13226308 467.74635334 400.82566517 467.74722154 C408.21027824 467.75654472 415.59488998 467.76662941 422.97950125 467.77728039 C437.37883825 467.79755233 451.77811532 467.80786225 466.17746669 467.80529118 C476.05030051 467.80425458 485.92308703 467.81391761 495.79590434 467.83193021 C501.48884335 467.84195569 507.18167769 467.8471243 512.87462234 467.83916283 C518.09339696 467.83195148 523.31196822 467.83863944 528.53071707 467.85604823 C530.41164708 467.85991064 532.29259585 467.85879232 534.17351753 467.85199135 C547.86448487 467.80644177 561.89067529 468.16262245 574.27719116 474.74723816 C574.935177 475.08618103 575.59316284 475.4251239 576.27108765 475.77433777 C583.2138319 479.54575697 588.58824961 484.65298087 594.08969116 490.24723816 C594.76515991 490.8646991 595.44062866 491.48216003 596.13656616 492.11833191 C605.71956845 500.95928756 613.10831601 514.13162213 613.71859741 527.23551941 C613.72897899 529.67700393 613.70604428 532.11882556 613.65219116 534.55973816 C613.63486938 535.83848816 613.61754761 537.11723816 613.59970093 538.43473816 C613.07965563 559.20479144 605.63611789 576.14682042 590.56234741 590.68473816 C573.20256655 605.77576646 555.28741814 607.70332498 533.31233215 607.62818909 C531.10447094 607.63164939 528.89661146 607.63641645 526.68875557 607.64237082 C520.64544847 607.65485981 514.60228405 607.64871984 508.55897653 607.63941216 C502.70298188 607.63331227 496.84701716 607.64132393 490.99102666 607.64885426 C478.27861655 607.66462372 465.56625177 607.66329298 452.85383738 607.65461752 C441.72438733 607.64706007 430.59495387 607.64510574 419.46550179 607.64868546 C418.72621602 607.64891461 417.98693026 607.64914377 417.22524189 607.64937987 C414.22389001 607.65031395 411.22253814 607.65126916 408.22118628 607.65225916 C380.07904201 607.66143108 351.93692653 607.65312504 323.79478671 607.63696847 C298.82593408 607.62274259 273.85712737 607.62399744 248.88827515 607.63835144 C220.80697983 607.65444091 192.72570996 607.66077019 164.64441067 607.65151465 C161.64647075 607.65055258 158.64853083 607.64961405 155.6505909 607.64868546 C154.9124752 607.64844822 154.17435951 607.64821099 153.41387668 607.64796657 C142.29989695 607.64456367 131.1859357 607.6485274 120.07195854 607.65612411 C107.42096581 607.66472855 94.77002533 607.66250137 82.11903905 607.64628188 C75.67001622 607.63842631 69.22108624 607.63526097 62.77206421 607.64522934 C56.85690323 607.65423376 50.9419203 607.64914948 45.02677525 607.63329668 C42.89829088 607.62997294 40.76979115 607.63158797 38.64131682 607.63892405 C9.18822091 607.73257066 -22.26688337 603.38325149 -45.91030884 584.24723816 C-47.13427368 583.26690613 -47.13427368 583.26690613 -48.38296509 582.26676941 C-69.57933282 564.28097979 -79.59438604 537.45137787 -81.91030884 510.24723816 C-82.2869684 502.38890742 -82.2167264 494.51484345 -82.21109009 486.64958191 C-82.21498762 484.36577274 -82.21932442 482.08196429 -82.22407532 479.79815674 C-82.23150237 475.02668401 -82.23127287 470.25528531 -82.22598267 465.48381042 C-82.22020737 459.42826304 -82.23708963 453.37302345 -82.26032734 447.31752682 C-82.27520499 442.60287767 -82.27591726 437.88830014 -82.27281761 433.17363167 C-82.27332429 430.94415747 -82.27843613 428.71467854 -82.28862953 426.48522758 C-82.4730127 380.50790306 -69.03176222 335.84031823 -37.91030884 301.24723816 C-37.04019165 300.2559491 -36.17007446 299.26466003 -35.27359009 298.24333191 C-30.45089386 292.81502911 -25.53544824 287.83274784 -19.91030884 283.24723816 C-19.39371704 282.81830261 -18.87712524 282.38936707 -18.34487915 281.94743347 C22.4802872 248.09074021 71.07369744 231.06043075 124.23184204 231.10920715 C126.13526528 231.10497523 126.13526528 231.10497523 128.07714152 231.10065782 C131.56503303 231.09298284 135.05290477 231.09128965 138.54080367 231.09060669 C142.31599116 231.08875278 146.09116746 231.08113807 149.86634827 231.0741272 C156.39934395 231.06264401 162.93233711 231.05437759 169.46533966 231.04800797 C179.80423154 231.03763712 190.14309178 231.01706259 200.48196411 230.99488831 C204.0263709 230.98741006 207.57077782 230.97999612 211.11518478 230.97260094 C212.00079626 230.97075037 212.88640773 230.9688998 213.79885592 230.96699316 C223.86243205 230.94609877 233.92601164 230.92725457 243.98959351 230.90934753 C244.90869171 230.90770935 245.82778992 230.90607117 246.77473959 230.90438335 C261.66527259 230.87810399 276.55580805 230.85945408 291.44635442 230.84275563 C306.76528864 230.82530043 322.08417459 230.79642152 337.40307021 230.75786626 C346.83471393 230.73454931 356.26627894 230.72047921 365.6979517 230.71853863 C372.16754976 230.71642006 378.63706965 230.70341447 385.10663256 230.6820593 C388.83118387 230.67010253 392.55558008 230.66283028 396.28014946 230.66877174 C421.60411242 230.70375467 443.38964491 229.81827804 463.08969116 212.24723816 C471.03869596 203.91235935 474.50111852 193.82645992 474.36312866 182.46989441 C473.49810886 172.27501813 468.23369713 162.62348204 460.47250366 156.02067566 C457.73383906 153.99512594 454.94564148 152.10277565 452.08969116 150.24723816 C451.40906616 149.76383972 450.72844116 149.28044128 450.02719116 148.78239441 C441.08699528 142.65463515 430.35392145 140.08771138 419.64191532 140.1169529 C418.52522638 140.11403775 418.52522638 140.11403775 417.38597807 140.11106372 C414.88347674 140.10573604 412.38103049 140.1075069 409.87852478 140.10920715 C408.06927441 140.10678918 406.26002459 140.10392694 404.45077556 140.10065782 C399.47240563 140.09289921 394.49404947 140.09128511 389.51567423 140.09060669 C384.1487051 140.08876788 378.78174406 140.08116139 373.41477966 140.0741272 C364.1107703 140.06259681 354.80676275 140.05435484 345.50274849 140.04800797 C330.79212881 140.03768305 316.08153172 140.01711908 301.3709259 139.99488831 C296.3379031 139.98740834 291.3048802 139.97999462 286.27185726 139.97260094 C285.01397695 139.97075037 283.75609663 139.9688998 282.46009873 139.96699316 C268.13781989 139.94606152 253.81553855 139.92723621 239.49325562 139.90934753 C238.18388497 139.90770935 236.87451432 139.90607117 235.52546578 139.90438335 C214.31857197 139.87811249 193.11167642 139.85946154 171.90477324 139.84275563 C150.12918794 139.82532483 128.35363674 139.79646786 106.57807869 139.75786626 C93.14929418 139.73448652 79.72056528 139.7204735 66.29176026 139.71853863 C57.08329226 139.71642655 47.87487951 139.70347468 38.66643632 139.6820593 C33.35641121 139.67005182 28.04649578 139.66286462 22.73645782 139.66877174 C17.86860886 139.67408986 13.0009831 139.66551432 8.13317131 139.64621536 C6.37871492 139.6416627 4.62423653 139.64207868 2.86978478 139.64816375 C-19.82072811 139.71979489 -38.38812176 134.36830579 -55.16030884 118.55973816 C-68.80310054 104.25036055 -75.30839057 87.08336207 -75.21279907 67.37052917 C-74.69495893 47.00134749 -66.02506726 30.48746727 -51.53921509 16.53239441 C-36.30919706 3.29382005 -19.49284493 -0.06492618 0 0 Z " fill="#8A2EE5" transform="translate(3387.9103088378906,76.75276184082031)"/>
<path d="M0 0 C1.64388856 -0.00417977 3.28777424 -0.0096608 4.93165463 -0.01631981 C9.42082604 -0.03071013 13.90981285 -0.02654976 18.39899409 -0.019153 C23.25204646 -0.01440734 28.10505969 -0.02694391 32.95809937 -0.03717041 C42.45722901 -0.05433985 51.95629245 -0.05520179 61.45543358 -0.04995751 C69.18426669 -0.04590899 76.91308029 -0.04736747 84.64191246 -0.05270576 C86.29472945 -0.0538284 86.29472945 -0.0538284 87.98093667 -0.05497371 C90.21982645 -0.05650528 92.45871622 -0.05804363 94.69760599 -0.05958868 C115.68261461 -0.07330851 136.66758593 -0.067881 157.65259369 -0.05640347 C176.80958097 -0.04648473 195.96647147 -0.05938916 215.12344382 -0.08333766 C234.82797105 -0.10778345 254.53245332 -0.11732228 274.2369954 -0.11068493 C285.28562271 -0.10720318 296.33417575 -0.10935478 307.38279152 -0.12693596 C316.79447461 -0.14172717 326.20603121 -0.14220431 335.617712 -0.12486505 C340.41047957 -0.11640682 345.20302186 -0.11407682 349.99577713 -0.1295166 C404.05332729 -0.29100228 449.25227459 12.92972545 488.52616882 51.38768005 C490.97952997 53.96420191 493.25025733 56.65466161 495.52616882 59.38768005 C496.82747742 60.8572113 496.82747742 60.8572113 498.15507507 62.35643005 C547.88016322 118.62102538 573.28261935 194.14732609 578.52616882 268.38768005 C578.61084412 269.49965759 578.69551941 270.61163513 578.78276062 271.75730896 C579.54538204 282.59670141 579.72726844 293.39860117 579.71366882 304.26268005 C579.71276245 305.61045532 579.71276245 305.61045532 579.71183777 306.98545837 C579.68480426 321.86509588 579.20982795 336.59139648 577.52616882 351.38768005 C577.40257996 352.49836853 577.27899109 353.60905701 577.1516571 354.75340271 C569.77846044 418.7706242 550.19762877 483.4519421 509.52616882 534.38768005 C508.72437195 535.40088318 507.92257507 536.4140863 507.09648132 537.45799255 C502.76560125 542.83787472 498.23734939 548.01075134 493.58085632 553.1103363 C491.82051084 555.06144166 490.13432559 557.04781549 488.46366882 559.07518005 C485.15704697 562.93738607 481.44992305 566.16481973 477.52616882 569.38768005 C476.77520935 570.00715515 476.77520935 570.00715515 476.00907898 570.6391449 C444.59952511 596.40036728 407.39524213 609.7435492 366.75799561 609.65510559 C365.10668098 609.65885038 363.45536812 609.66345517 361.80405802 609.66883624 C357.30399792 609.6809786 352.80401265 609.68081623 348.30393994 609.67844748 C343.43608483 609.6780371 338.56825301 609.68909926 333.70040894 609.69856262 C324.17885206 609.71512377 314.65731996 609.72066989 305.13574988 609.72178738 C297.39355053 609.72273987 289.6513593 609.72686016 281.90916252 609.73318863 C259.93284606 609.75078518 237.95654907 609.76002961 215.98022551 609.75852768 C214.20581291 609.75840781 214.20581291 609.75840781 212.39555359 609.75828552 C210.61896224 609.75816288 210.61896224 609.75816288 208.80648016 609.75803776 C189.6054199 609.75722459 170.40443803 609.77637429 151.20340044 609.80456226 C131.46269258 609.83331275 111.72202294 609.84710146 91.98129362 609.8453747 C80.90835374 609.84471171 69.83549612 609.85016474 58.76257515 609.8717308 C49.33754299 609.88997076 39.91263043 609.89426655 30.48758823 609.88071196 C25.68364179 609.87419747 20.87992462 609.87401022 16.07600021 609.89141846 C11.66977717 609.9072208 7.26396384 609.90421307 2.85775035 609.88685019 C1.27244623 609.88379607 -0.31288903 609.88735209 -1.8981564 609.89857034 C-21.37104985 610.02713482 -39.01438896 604.84201978 -54.00898743 591.8290863 C-69.86251985 576.12630063 -74.84100423 556.38814102 -75.00016892 534.81914365 C-75.0050098 531.14890785 -74.99049719 527.47902715 -74.97554016 523.80882263 C-74.97932918 521.14776791 -74.98468296 518.48675748 -74.99191284 515.82571411 C-75.00575594 509.38382432 -74.99835649 502.94213221 -74.98323726 496.50025205 C-74.96627209 488.98234882 -74.96960045 481.46449339 -74.97333134 473.94657692 C-74.97919324 460.52561915 -74.96510259 447.10475558 -74.94038391 433.68382263 C-74.91645367 420.68932061 -74.9093874 407.6949443 -74.9198761 394.70042419 C-74.93130762 380.51261956 -74.93318893 366.32487289 -74.918778 352.13706893 C-74.91725232 350.62190386 -74.91573197 349.10673879 -74.914217 347.59157372 C-74.91345918 346.84628478 -74.91270137 346.10099585 -74.91192059 345.33312241 C-74.90719613 340.10421198 -74.90901598 334.87532762 -74.91328239 329.64641762 C-74.91822929 323.26849782 -74.91213473 316.89069641 -74.8923881 310.51280359 C-74.88257574 307.26451272 -74.87897475 304.01643631 -74.88528061 300.76813126 C-74.93613789 270.80387135 -74.93613789 270.80387135 -68.03633118 257.38768005 C-67.52743347 256.38994568 -67.52743347 256.38994568 -67.008255 255.37205505 C-57.9705841 238.62689862 -41.72083081 226.77999454 -23.78633118 221.13768005 C-4.78752587 216.07407647 12.80930284 218.73572753 30.15116882 227.63768005 C46.74458905 237.38060569 58.48113845 251.92709641 63.79960632 270.37986755 C65.11229383 275.81411151 65.6526371 280.90944931 65.66419983 286.50250244 C65.66702111 287.1954828 65.66984239 287.88846316 65.67274916 288.60244292 C65.68104657 290.9121331 65.68242921 293.22177505 65.68388367 295.53147888 C65.68855545 297.19261814 65.69369961 298.85375612 65.69927979 300.51489258 C65.7105365 304.08668713 65.71898233 307.65847345 65.72539902 311.23027992 C65.73610545 316.88309434 65.75635709 322.53584948 65.77851868 328.18862915 C65.84035495 344.26121811 65.89444237 360.33380311 65.92753601 376.40647888 C65.94590192 385.28747809 65.97486042 394.16837745 66.01554072 403.04930323 C66.03657324 407.74495891 66.05206272 412.44048898 66.05434799 417.13619423 C66.05650102 421.55465193 66.07243696 425.97284791 66.09873772 430.39122581 C66.10590657 432.00805593 66.10804345 433.62491784 66.10463524 435.24176025 C66.08689361 445.26260646 66.10617423 455.06546484 72.52616882 463.38768005 C79.93018475 469.27723818 87.04008265 469.68382369 96.11743164 469.65510559 C97.69993825 469.66190226 97.69993825 469.66190226 99.31441468 469.66883624 C102.84378437 469.68147945 106.37299972 469.67985985 109.90238953 469.6782074 C112.43576251 469.68419295 114.96913368 469.69099856 117.50250244 469.69856262 C123.6685121 469.71439805 129.83446542 469.7206713 136.0004935 469.72178738 C141.01924714 469.72273957 146.03798823 469.72685842 151.0567379 469.73318863 C165.31196269 469.75080047 179.56715741 469.76002841 193.82239316 469.75852768 C194.97429116 469.75840781 194.97429116 469.75840781 196.14945984 469.75828552 C197.30277945 469.75816288 197.30277945 469.75816288 198.47939845 469.75803776 C210.91490892 469.75722644 223.35029779 469.7763253 235.78577314 469.80456226 C248.58009068 469.83338246 261.37434914 469.84709732 274.16869992 469.8453747 C281.34120039 469.8447136 288.51357365 469.8500811 295.68604469 469.8717308 C302.44209347 469.89199366 309.19783101 469.8911761 315.95390892 469.87669754 C318.42163359 469.87461904 320.88937537 469.87925246 323.35707092 469.89141846 C352.88042528 470.02743823 377.26314972 463.99185463 399.41679382 443.53611755 C403.45760411 439.42047745 406.9959003 434.94148129 410.52616882 430.38768005 C411.26866882 429.46084412 412.01116882 428.53400818 412.77616882 427.5790863 C418.96974573 419.65431863 423.87680157 411.27391762 428.52616882 402.38768005 C429.13331726 401.24041443 429.7404657 400.0931488 430.36601257 398.91111755 C439.79199933 379.97364756 444.90224782 359.12736059 448.52616882 338.38768005 C448.65749207 337.67370056 448.78881531 336.95972107 448.92411804 336.22410583 C456.80426696 291.91622782 447.13697363 241.48075795 425.52616882 202.38768005 C424.95124695 201.32420349 424.37632507 200.26072693 423.78398132 199.1650238 C419.63917505 191.76358403 414.81741177 185.00727695 409.52616882 178.38768005 C409.07612488 177.8172699 408.62608093 177.24685974 408.16239929 176.65916443 C392.25193381 156.65493782 371.15817354 143.82311576 345.52616882 140.38768005 C340.61601327 140.11242827 335.71208919 140.11420731 330.79589844 140.12939453 C329.32937707 140.12653477 327.86285721 140.12279399 326.39634007 140.11825603 C322.39309524 140.10833456 318.38993865 140.11063257 314.3866874 140.11498296 C310.0586439 140.1174702 305.73062295 140.10837669 301.40258789 140.1006012 C293.9091992 140.08858134 286.41583174 140.08344957 278.92243385 140.0827198 C268.07094601 140.08139086 257.21950944 140.06624989 246.36803975 140.04722463 C228.73724342 140.0164102 211.10644579 139.99223315 193.47563171 139.97434998 C192.42139034 139.9732773 191.36714896 139.97220461 190.28096088 139.97109943 C178.5245429 139.95928444 166.76812439 139.94907784 155.01170349 139.94065857 C150.75065611 139.93758464 146.48960875 139.93449584 142.2285614 139.93138123 C141.17712738 139.93061589 140.12569337 139.92985055 139.04239772 139.92906202 C121.48155796 139.91595942 103.92075533 139.89129116 86.35994309 139.85763782 C75.54259754 139.83740139 64.72533155 139.82705103 53.90796693 139.82962703 C46.48898308 139.83066578 39.07006196 139.82096644 31.65110002 139.802988 C27.37771029 139.79299083 23.10445944 139.78776307 18.83106232 139.79575539 C14.90828323 139.80300429 10.98577307 139.79619675 7.06302788 139.77886998 C5.65460678 139.77503011 4.24616054 139.77608397 2.83775083 139.78292686 C-18.67176268 139.87902796 -39.50565039 134.84971153 -55.85664368 120.1025238 C-69.64915062 105.477136 -75.11354093 85.49703878 -74.75117493 65.78611755 C-73.90670958 46.95580067 -65.33169469 30.30075305 -52.16914368 17.0712738 C-47.40447374 12.97237425 -42.15685618 9.94917898 -36.59883118 7.07518005 C-35.97540833 6.74928894 -35.35198547 6.42339783 -34.70967102 6.08763123 C-23.55209411 0.62260853 -12.21174248 -0.05089086 0 0 Z " fill="#B3B6BD" transform="translate(1052.4738311767578,76.61231994628906)"/>
<path d="M0 0 C1.71408938 -0.00303049 3.42817741 -0.00692442 5.14226311 -0.01159257 C9.79258233 -0.0217648 14.44282353 -0.01971872 19.09314883 -0.01541197 C24.13131111 -0.01292508 29.16945553 -0.02198277 34.20761108 -0.02944946 C44.05233841 -0.04214188 53.89703838 -0.04399721 63.74177251 -0.0416492 C71.74558811 -0.03986067 79.74939545 -0.04162709 87.75321007 -0.04587364 C89.46678475 -0.04676643 89.46678475 -0.04676643 91.21497711 -0.04767724 C93.53618573 -0.04888907 95.85739434 -0.05010321 98.17860296 -0.05131962 C119.90063855 -0.06217295 141.62265859 -0.06004244 163.34469505 -0.05393478 C183.19921805 -0.04876086 203.05369206 -0.06003753 222.90820537 -0.07903299 C243.3282032 -0.0984189 263.74817785 -0.1066665 284.16818494 -0.10290974 C295.61938574 -0.10099971 307.07054478 -0.10346654 318.52173805 -0.11762428 C328.26396621 -0.12954821 338.00612686 -0.13093114 347.74835596 -0.11883412 C352.71419471 -0.11295418 357.67991005 -0.11182176 362.64574051 -0.12383652 C367.19845101 -0.13472358 371.75093545 -0.13155858 376.3036355 -0.11757483 C377.9432788 -0.11493581 379.58293998 -0.11726925 381.22256569 -0.1253107 C394.12689479 -0.18416649 406.74471297 0.72489643 418.34233093 6.94819641 C419.00998474 7.29487366 419.67763855 7.6415509 420.36552429 7.99873352 C426.16817982 11.10802543 431.22663499 14.82165664 436.09233093 19.26069641 C436.70076843 19.77761047 437.30920593 20.29452454 437.93608093 20.82710266 C449.80548428 31.59049343 456.19269048 46.81107165 457.24858093 62.59663391 C457.82037327 78.84506609 453.03352191 93.56686491 443.09233093 106.26069641 C442.44522156 107.09729797 441.79811218 107.93389954 441.13139343 108.79585266 C429.81773701 122.40168111 413.48706012 130.03399247 396.09233093 132.26069641 C390.58424028 132.54044458 385.08414113 132.52969286 379.57102966 132.51225281 C377.90993057 132.51439437 376.24883242 132.51742201 374.58773637 132.52125323 C370.04668647 132.52925706 365.50571947 132.52500375 360.96466994 132.51873446 C356.05791217 132.51418629 351.15116981 132.52124839 346.24441528 132.52703857 C337.74754525 132.53565866 329.25069603 132.53748279 320.75382233 132.5350914 C308.4525428 132.53198894 296.15130914 132.54364968 283.85004118 132.5596412 C263.86879682 132.58558711 243.88755242 132.60561393 223.90629578 132.61909485 C222.7112332 132.61990522 221.51617062 132.62071559 220.28489402 132.62155052 C203.32912171 132.63276977 186.37335269 132.6380529 169.41757718 132.64093764 C168.22372736 132.64114163 167.02987755 132.64134562 165.79985046 132.64155579 C164.60746225 132.64175572 163.41507404 132.64195566 162.18655285 132.64216165 C142.28319885 132.64589816 122.37989465 132.66500733 102.4765656 132.69665015 C90.21124689 132.71553521 77.94605607 132.72154442 65.68072686 132.71083297 C57.27170756 132.70450078 48.86277979 132.71259124 40.45378056 132.73188709 C35.60733344 132.7425397 30.76110874 132.74677041 25.91466331 132.7334156 C21.46945111 132.72128983 17.02465428 132.72783476 12.5794777 132.74860759 C10.97995743 132.75287995 9.38040135 132.75054767 7.78090653 132.74056642 C-11.19621626 132.63083479 -27.31210078 137.20464768 -41.46626282 150.63179016 C-63.42778964 174.27996224 -70.40051444 207.88266405 -70.05610657 239.32710266 C-69.23631085 261.05168928 -65.95667276 282.79075175 -55.90766907 302.26069641 C-55.35079407 303.3473761 -54.79391907 304.43405579 -54.22016907 305.55366516 C-50.3253835 312.66705824 -45.62230102 318.52547119 -39.90766907 324.26069641 C-39.36755188 324.82401672 -38.82743469 325.38733704 -38.27095032 325.96772766 C-23.57741833 339.99505417 -2.99653502 341.41496096 16.13897705 341.39199829 C17.78511175 341.39370188 19.43124605 341.39585222 21.07737964 341.39840955 C24.64967985 341.40299565 28.22196276 341.40442954 31.79426575 341.40344429 C37.60761188 341.40184792 43.4209409 341.40706143 49.23428345 341.41307068 C57.67554278 341.42117629 66.1167991 341.426125 74.5580616 341.42936134 C87.90819694 341.43486547 101.25830684 341.45177086 114.60842896 341.47070312 C119.1788301 341.47705961 123.74923132 341.48336809 128.31963253 341.48968029 C129.4617978 341.49126405 130.60396307 341.49284782 131.78073942 341.49447957 C144.77726093 341.51240998 157.77378424 341.52863912 170.77030945 341.5436554 C171.95809669 341.54503127 173.14588393 341.54640714 174.36966472 341.5478247 C193.60987067 341.569746 212.85007004 341.58050921 232.09028626 341.58802614 C251.85794835 341.59610493 271.62555417 341.61941968 291.39318413 341.65597981 C303.57768447 341.67797124 315.76206903 341.68767973 327.94658821 341.68147948 C336.30237933 341.67829819 344.65807176 341.68967917 353.01383234 341.71237389 C357.82987545 341.72500569 362.64569859 341.73125513 367.46175003 341.71995735 C371.87933371 341.7097279 376.29649194 341.71816297 380.71402573 341.74082031 C382.30353847 341.74578079 383.89308999 341.74415209 385.48258347 341.73488764 C405.60963 341.62689337 422.75664143 347.12771258 437.36967468 361.51069641 C438.26815125 362.41819641 439.16662781 363.32569641 440.09233093 364.26069641 C440.856745 365.00319641 441.62115906 365.74569641 442.40873718 366.51069641 C452.35635126 376.77920126 456.90588187 391.06839489 457.46733093 405.19819641 C456.75492058 422.60950543 450.57869181 437.08442727 438.09233093 449.26069641 C437.35498718 450.03026672 436.61764343 450.79983704 435.85795593 451.59272766 C431.1268196 456.25242066 426.14823051 459.61902599 420.27983093 462.63569641 C419.66486755 462.95747864 419.04990417 463.27926086 418.41630554 463.61079407 C406.96707346 469.15722621 394.91132312 469.69913514 382.44923401 469.64164734 C380.79908411 469.64511066 379.14893653 469.64987973 377.49879372 469.65582907 C372.99679525 469.66827793 368.49498915 469.66219653 363.99299026 469.65287042 C359.12420501 469.64605429 354.25545176 469.65657433 349.38667297 469.66481018 C339.85759111 469.67812664 330.32858029 469.67527785 320.79949568 469.66657226 C313.04402459 469.65978234 305.28857334 469.65888466 297.53310013 469.66214371 C295.87389263 469.66283326 295.87389263 469.66283326 294.18116579 469.66353673 C291.93350647 469.66449599 289.68584716 469.66546863 287.43818785 469.66645451 C266.3729331 469.67500374 245.30771753 469.66518449 224.24246921 469.64905341 C206.21763127 469.6356767 188.19285139 469.63795736 170.16801453 469.65180969 C149.19708462 469.66791879 128.22618915 469.67415249 107.25525391 469.6649729 C105.0118301 469.66401736 102.76840628 469.66307425 100.52498245 469.66214371 C99.42144419 469.66168088 98.31790593 469.66121805 97.18092712 469.6607412 C89.45342794 469.6581653 81.72595081 469.66249244 73.99845505 469.66958237 C64.55325585 469.67805815 55.1081313 469.67559215 45.66294049 469.65974014 C40.855531 469.65193424 36.04824526 469.64863159 31.2408371 469.65868759 C5.66173572 469.70776249 -19.47337281 469.01409469 -44.59516907 463.57319641 C-45.78594055 463.3197345 -46.97671204 463.06627258 -48.2035675 462.80513 C-78.3565183 456.11562122 -105.96186452 444.14470403 -128.90766907 423.26069641 C-129.52029602 422.70833313 -130.13292297 422.15596985 -130.76411438 421.58686829 C-180.17066401 376.89878146 -207.78164143 315.6055787 -211.90766907 249.26069641 C-213.65478436 204.83791996 -207.48958185 154.41446391 -184.9276886 115.0683136 C-183.79724579 113.06501093 -182.74045758 111.03102088 -181.68501282 108.98725891 C-173.55593757 93.47682203 -163.35332125 79.41870682 -151.27485657 66.74507141 C-149.28844844 64.66032624 -147.43347367 62.53647856 -145.59516907 60.32319641 C-120.01003208 30.96120587 -84.60502336 11.74768657 -46.72016907 3.94819641 C-45.65608826 3.72728333 -45.65608826 3.72728333 -44.57051086 3.50190735 C-29.84476439 0.71811377 -14.94987911 -0.03827454 0 0 Z " fill="#B3B6BD" transform="translate(1941.9076690673828,216.7393035888672)"/>
<path d="M0 0 C1.23270126 -0.00701431 2.46540253 -0.01402863 3.73545837 -0.02125549 C7.68954127 -0.03865929 11.64354321 -0.04568904 15.59765625 -0.046875 C16.2709623 -0.04731686 16.94426834 -0.04775871 17.6379776 -0.04821396 C37.47615069 -0.05504389 57.00800184 0.19214469 76.66015625 3.203125 C77.85415039 3.37473145 79.04814453 3.54633789 80.27832031 3.72314453 C148.45506056 13.61805664 218.56041295 37.37893043 272.66015625 81.203125 C273.43045166 81.81897461 273.43045166 81.81897461 274.21630859 82.44726562 C311.40610811 112.36454642 339.91196737 150.1392299 345.94835544 198.51264846 C346.55770905 204.30663958 346.80663831 210.01623163 346.80059814 215.83987427 C346.80505483 217.21395598 346.80505483 217.21395598 346.80960155 218.61579692 C346.81820845 221.65679731 346.81978994 224.69775797 346.82128906 227.73876953 C346.82592289 229.93100568 346.83094831 232.12324103 346.83633423 234.31547546 C346.8494052 240.2517184 346.85589271 246.18795005 346.86034489 252.12420511 C346.863284 255.8394158 346.86739035 259.55462346 346.87184906 263.26983261 C346.88629311 275.58064465 346.89563153 287.89144828 346.89971557 300.20226802 C346.89993834 300.86448442 346.90016111 301.52670081 346.90039062 302.20898438 C346.90061205 302.87202072 346.90083348 303.53505706 346.90106162 304.21818541 C346.90476077 314.28383128 346.9195737 324.34941711 346.94140625 334.41503906 C346.96674003 346.13403149 346.98158664 357.85297671 346.98309207 369.57199752 C346.98413644 375.76404307 346.98996582 381.95599247 347.00791168 388.14801407 C347.02447927 393.97739719 347.02650593 399.80661275 347.01777267 405.63601112 C347.01700695 407.76432941 347.02128294 409.89265705 347.03123093 412.02095222 C347.14326983 437.50395114 343.13941801 460.36911302 324.66015625 479.203125 C324.11746094 479.7703125 323.57476563 480.3375 323.015625 480.921875 C310.678552 492.66551917 290.20555975 497.64467162 273.65625 497.41796875 C262.70258099 496.63250357 252.50249586 494.11084899 242.66015625 489.203125 C241.6753125 488.72230469 240.69046875 488.24148438 239.67578125 487.74609375 C224.39393073 479.61028991 213.8777378 466.5964728 208.58486938 450.18554688 C206.00794956 440.96757203 206.10095495 431.98903664 206.14599609 422.4765625 C206.14052448 420.52678883 206.1332768 418.57701947 206.12440491 416.6272583 C206.10915573 412.45530862 206.10622919 408.28360453 206.11317062 404.1116333 C206.12402739 397.50319955 206.10649222 390.8950189 206.08535767 384.28662109 C206.05518072 373.82771059 206.04341099 363.3688759 206.03978121 352.90992546 C206.03312262 334.1924346 206.00393633 315.47499679 205.95468485 296.75757027 C205.93827309 290.19990151 205.93275324 283.64234304 205.93627524 277.08465576 C205.93671494 272.99335739 205.92910883 268.90210004 205.91959953 264.8108139 C205.91693662 262.92676714 205.91763426 261.04271185 205.9221096 259.15866852 C205.98033209 232.8078574 201.68741639 210.74990078 182.66015625 191.203125 C182.00789063 190.48898437 181.355625 189.77484375 180.68359375 189.0390625 C169.29692912 176.94897458 155.36489346 167.72591274 140.66015625 160.203125 C139.97888672 159.84299316 139.29761719 159.48286133 138.59570312 159.11181641 C74.87631335 125.61336984 -2.99422263 124.22150371 -70.7421875 144.828125 C-104.23805127 155.34809765 -145.19822926 175.30916625 -162.71484375 207.578125 C-168.42273644 218.5873054 -171.49585515 229.87678183 -171.47787476 242.28913879 C-171.48069604 243.08673054 -171.48351732 243.88432228 -171.48642409 244.70608348 C-171.49473555 247.37022771 -171.49610541 250.03433021 -171.49755859 252.69848633 C-171.50222962 254.61265173 -171.50737366 256.52681604 -171.51295471 258.440979 C-171.52422112 262.56114917 -171.53266259 266.68131216 -171.53907394 270.80149269 C-171.54978233 277.33022859 -171.57003728 283.85891318 -171.5921936 290.38761902 C-171.6540143 308.95264315 -171.70802736 327.51766463 -171.74121094 346.08276367 C-171.75962139 356.33794222 -171.7886406 366.59303501 -171.82921565 376.84815043 C-171.85018443 382.26729153 -171.8657284 387.68632502 -171.86802292 393.1055088 C-171.87018812 398.21342667 -171.88624601 403.32112083 -171.91241264 408.42897034 C-171.91953737 410.29077606 -171.92174032 412.15260909 -171.91831017 414.01442528 C-171.88288475 436.92327619 -175.09862194 460.61149627 -191.58984375 478.015625 C-205.24004425 490.74506999 -223.82172715 496.86349969 -242.33984375 497.578125 C-253.88355139 497.13114642 -265.02263534 494.34763466 -275.33984375 489.203125 C-276.3246875 488.72230469 -277.30953125 488.24148438 -278.32421875 487.74609375 C-294.02192721 479.38889404 -304.57985134 465.93984405 -309.77734375 449.015625 C-313.25748339 436.35915303 -312.49442312 422.96212303 -312.50097656 409.95629883 C-312.50561173 407.80645158 -312.51063732 405.65660515 -312.51602173 403.50675964 C-312.52908493 397.68780363 -312.53557937 391.86885913 -312.54003239 386.04989076 C-312.54297442 382.40312375 -312.54708142 378.7563598 -312.55153656 375.10959435 C-312.56519871 363.66733466 -312.57487027 352.22508207 -312.57873845 340.7828148 C-312.5832089 327.63583202 -312.60071511 314.48895373 -312.62973905 301.34200269 C-312.65146622 291.14106344 -312.66144867 280.94015334 -312.66277957 270.73919123 C-312.66382021 264.66539426 -312.66956755 258.59169568 -312.68759918 252.51792336 C-312.7042707 246.79109829 -312.70614444 241.06444354 -312.69746017 235.33760262 C-312.69669974 233.25618274 -312.70089793 231.17475298 -312.71091843 229.09335709 C-312.92943405 180.80290913 -299.00991379 140.12139041 -265.33984375 105.203125 C-264.75509277 104.59645996 -264.1703418 103.98979492 -263.56787109 103.36474609 C-255.88434658 95.44079839 -248.09542855 87.95169896 -239.33984375 81.203125 C-238.33695313 80.40648437 -237.3340625 79.60984375 -236.30078125 78.7890625 C-223.60756871 68.76132703 -210.21305028 60.26034432 -195.96606445 52.61328125 C-193.95787669 51.53497945 -191.95472363 50.44729624 -189.95385742 49.35546875 C-181.34493343 44.67887035 -172.62874529 40.38282742 -163.65234375 36.453125 C-162.98285706 36.15897705 -162.31337036 35.8648291 -161.62359619 35.56176758 C-144.9275809 28.27406842 -127.73681145 22.56164446 -110.33984375 17.203125 C-109.27588379 16.87344727 -108.21192383 16.54376953 -107.11572266 16.20410156 C-73.02817862 5.82074482 -35.59034815 0.13602598 0 0 Z " fill="#B2B6BD" transform="translate(2829.33984375,201.796875)"/>
<path d="M0 0 C15.80667358 13.05768687 25.68242951 28.20048764 28.375 48.75 C28.6511562 53.77624186 28.65014556 58.7964929 28.63569641 63.82867432 C28.63872202 65.33303159 28.64261354 66.83738732 28.64728898 68.34174037 C28.65752519 72.44952959 28.65539838 76.55723111 28.65110838 80.66502738 C28.64863314 85.10552636 28.65766526 89.54600466 28.66514587 93.98649597 C28.6778732 102.676273 28.67968898 111.36601909 28.67734561 120.05580387 C28.67555993 127.12254085 28.67731745 134.18926847 28.68157005 141.25600433 C28.68216524 142.26318995 28.68276043 143.27037557 28.68337366 144.30808197 C28.68458546 146.35444413 28.68579959 148.40080628 28.68701603 150.44716844 C28.6978842 169.62402167 28.69573263 188.80085731 28.68963119 207.97771153 C28.68446385 225.50088742 28.69571393 243.02400769 28.71472941 260.54717258 C28.73412685 278.56112619 28.74236039 296.57505351 28.73860615 314.58901763 C28.73669685 324.69394877 28.73915514 334.79883259 28.75332069 344.90375519 C28.76525984 353.50722801 28.7666111 362.11062438 28.75453053 370.7140983 C28.74865933 375.09875967 28.74749339 379.48328138 28.75953293 383.86793327 C28.77045118 387.89118769 28.76721854 391.91418686 28.75327124 395.93742964 C28.75064053 397.38352225 28.752939 398.82963525 28.76100711 400.27570775 C28.87490148 422.23460536 23.59056022 443.21043271 8.1875 459.5 C-5.52263525 472.59457816 -23.71991328 478.31379653 -42.4375 479.0625 C-62.87089773 478.53089941 -81.30883608 470.23515742 -95.625 455.75 C-108.50005203 441.6766758 -112.09439456 425.62117276 -112.01268005 407.05754089 C-112.01686049 405.4986962 -112.02234189 403.93985454 -112.02899987 402.38101846 C-112.04338023 398.12723347 -112.03923309 393.87364346 -112.03183305 389.61984813 C-112.02708519 385.02052895 -112.03962554 380.42125098 -112.04985046 375.82194519 C-112.06701256 366.82281076 -112.0678838 357.82374624 -112.06263756 348.82459971 C-112.05858956 341.50664339 -112.06004689 334.18870767 -112.06538582 326.87075233 C-112.06613424 325.82762251 -112.06688266 324.78449268 -112.06765376 323.70975286 C-112.06918531 321.59035123 -112.07072365 319.47094961 -112.07226873 317.35154799 C-112.08598457 297.49320233 -112.08056267 277.6348961 -112.06908352 257.77655134 C-112.05915356 239.62940219 -112.07208936 221.48235503 -112.09601771 203.33522161 C-112.12043054 184.67938395 -112.13001112 166.02359376 -112.12336498 147.36774045 C-112.11987743 136.90287231 -112.12207409 126.43808257 -112.13961601 115.97322655 C-112.15436536 107.06416605 -112.15493783 98.15523917 -112.1375451 89.24618121 C-112.12905496 84.70553339 -112.12683672 80.16512398 -112.14219666 75.62448883 C-112.15611338 71.45872533 -112.15119183 67.29340292 -112.13195742 63.12766448 C-112.12821835 61.62978629 -112.13105819 60.13187217 -112.14156907 58.63402619 C-112.26452022 39.75344167 -107.20849927 22.95660977 -94.02075195 9.00073242 C-68.7800482 -16.50409346 -29.45933207 -21.88848974 0 0 Z " fill="#B3B6BD" transform="translate(823.625,220.25)"/>
<path d="M0 0 C1.48347422 -0.00346457 2.96694587 -0.00823446 4.45041221 -0.01418173 C8.4911097 -0.02661156 12.53159242 -0.02055829 16.5722903 -0.01122308 C20.94385287 -0.00439982 25.31538003 -0.01492993 29.68693542 -0.02316284 C38.23641589 -0.03646725 46.78581712 -0.03363725 55.33530063 -0.02492492 C62.28617195 -0.01813623 69.23702114 -0.01723677 76.18789482 -0.02049637 C77.17902346 -0.02095607 78.1701521 -0.02141577 79.19131495 -0.0218894 C81.20506924 -0.02284862 83.21882352 -0.02382126 85.23257779 -0.02480717 C104.09270347 -0.0333513 122.95278532 -0.02354204 141.81290381 -0.00740607 C157.98059204 0.00599829 174.14821565 0.00366614 190.31590271 -0.01016235 C209.11235728 -0.02623185 227.90877351 -0.0325296 246.70523399 -0.02332556 C248.71107129 -0.02236996 250.71690859 -0.02142685 252.7227459 -0.02049637 C254.2029342 -0.01980213 254.2029342 -0.01980213 255.71302529 -0.01909386 C262.65258089 -0.01650824 269.59211208 -0.02086569 276.53166389 -0.02793503 C284.99281444 -0.03636536 293.45388153 -0.03403761 301.91502256 -0.0180928 C306.22843879 -0.01023102 310.54171608 -0.00708265 314.85513115 -0.01704025 C318.80969103 -0.02603111 322.7639842 -0.02098269 326.71852016 -0.0051076 C328.14296288 -0.0017783 329.5674285 -0.00341177 330.99185628 -0.01073496 C348.98048554 -0.09606598 363.58323688 4.53808364 376.73997498 17.20516968 C377.44895935 17.92317749 378.15794373 18.6411853 378.88841248 19.38095093 C379.47364685 19.94427124 380.05888123 20.50759155 380.66184998 21.08798218 C388.20400436 28.95555947 390.61564167 38.54781477 390.40745544 49.15829468 C389.78515945 61.57072786 384.17383682 71.33040791 375.27513123 79.89657593 C359.20921084 93.62191668 342.18426042 95.53907703 321.76519775 95.5146637 C320.35245045 95.51653497 318.93970367 95.51883693 317.52695769 95.52152902 C313.6677646 95.52761433 309.80859328 95.5275173 305.94939649 95.52633464 C301.77814554 95.52612981 297.60690142 95.53165731 293.43565369 95.53639221 C285.27180034 95.54468144 277.10795422 95.54744627 268.94409702 95.54800459 C262.30449348 95.54848058 255.66489232 95.55053949 249.02528954 95.55370522 C230.17958252 95.56250718 211.33388118 95.56712532 192.48817209 95.56637474 C191.47322749 95.56633479 190.45828289 95.56629483 189.4125824 95.56625366 C187.8882956 95.56619234 187.8882956 95.56619234 186.33321514 95.56612978 C169.87049839 95.56572347 153.40780452 95.57529043 136.94509438 95.58939203 C120.02050802 95.60377427 103.0959328 95.61066119 86.17134017 95.60979825 C76.67785435 95.60946692 67.18439254 95.61218622 57.69091225 95.6229763 C49.60711844 95.63210566 41.52335952 95.63423662 33.43956278 95.62746688 C29.32024356 95.6242139 25.20099115 95.62410051 21.08167839 95.63282013 C17.3008378 95.64074052 13.52011639 95.63919788 9.73927852 95.630536 C7.74464522 95.6282991 5.75000806 95.63578593 3.75538951 95.64377564 C-15.30975485 95.57182122 -33.67480021 92.58701449 -48.36158752 79.35360718 C-57.11230662 70.18855479 -61.90474423 59.08965818 -62.17408752 46.44735718 C-61.63393528 33.46682367 -56.28310412 24.28130964 -47.11158752 15.38095093 C-46.54568909 14.80602905 -45.97979065 14.23110718 -45.39674377 13.63876343 C-32.98403954 1.92408413 -16.30813435 -0.08398645 0 0 Z " fill="#B3B6BC" transform="translate(1996.111587524414,402.6190490722656)"/>
<path d="M0 0 C27.39980496 -0.62355647 50.9960186 8.50593706 71.04296875 27.30859375 C78.77872819 35.27910889 84.67939585 45.25640641 87.29296875 56.12109375 C87.4734375 56.83394531 87.65390625 57.54679687 87.83984375 58.28125 C90.51120023 75.02328585 88.1876252 93.06456118 78.29296875 107.12109375 C61.74734914 127.78154856 40.51266638 139.75839529 14.10546875 142.80859375 C-10.79808653 144.74598541 -35.64152637 139.39317261 -55.51953125 123.80859375 C-71.04515423 110.26398498 -80.1448433 95.44358288 -82.015625 74.69921875 C-82.6517313 57.65928016 -77.01477038 41.65702735 -65.58203125 28.93359375 C-47.9176597 10.29276909 -25.54640941 1.14276868 0 0 Z " fill="#B3B6BD" transform="translate(777.70703125,1.87890625)"/>
<path d="M0 0 C0.8302771 -0.00335861 1.6605542 -0.00671722 2.51599121 -0.01017761 C5.25384026 -0.01965267 7.99162777 -0.02162983 10.72949219 -0.02270508 C12.65077743 -0.02592298 14.57206243 -0.02928744 16.49334717 -0.03279114 C20.52486741 -0.03877592 24.55636625 -0.040632 28.58789062 -0.04003906 C33.70450168 -0.03993815 38.82097173 -0.05351926 43.93754959 -0.07081127 C47.91176965 -0.08204786 51.88595705 -0.08395464 55.86019135 -0.08342934 C57.74325796 -0.08459472 59.62632583 -0.08893342 61.50937653 -0.0967617 C76.77278848 -0.15421351 92.33782068 0.1819866 107.15136719 4.27026367 C107.9307666 4.48344238 108.71016602 4.69662109 109.51318359 4.91625977 C128.99783326 10.57207215 144.27176531 21.52146409 154.52636719 39.14526367 C165.44379427 59.34005592 166.84626275 79.97404292 166.86230469 102.41479492 C166.86874546 104.54798977 166.87547473 106.68118376 166.88247681 108.81437683 C166.89437914 113.25957286 166.89816438 117.70469153 166.89697266 122.14990234 C166.89676858 127.83006024 166.92419424 133.50972287 166.95851707 139.18976307 C166.98079357 143.58481612 166.98481014 147.97974942 166.9837532 152.37485313 C166.98610325 154.4691204 166.99489292 156.56339127 167.01041794 158.65760231 C167.03011587 161.58588951 167.02422736 164.5131 167.01220703 167.44140625 C167.02344604 168.29407578 167.03468506 169.1467453 167.04626465 170.0252533 C166.97052675 177.32291381 164.50810861 182.7153266 160.90136719 188.95776367 C154.31173942 195.02715767 146.46395495 195.74766881 137.80371094 195.46557617 C130.77002007 194.77813559 126.20450532 192.62536834 121.52636719 187.14526367 C120.96949219 186.52651367 120.41261719 185.90776367 119.83886719 185.27026367 C116.40708369 179.71404277 116.2343616 173.79792075 116.25512695 167.46289062 C116.24990021 166.62282974 116.24467346 165.78276886 116.23928833 164.91725159 C116.22909231 163.10308499 116.22327565 161.2888895 116.22140694 159.47469521 C116.21772194 156.59327907 116.20093529 153.71220061 116.1806488 150.83085632 C116.12545365 142.64185907 116.09464726 134.45281221 116.07006836 126.26367188 C116.05409738 121.24340574 116.02377753 116.22337889 115.98530388 111.20323753 C115.97373559 109.30128732 115.96772425 107.39929413 115.96762276 105.49730873 C115.96650376 90.10376641 115.20737989 75.41876641 104.78027344 63.07885742 C92.20057794 50.96991976 74.70530246 50.85995022 58.37174797 50.90143394 C55.49895713 50.90709023 52.62656063 50.89776759 49.75379944 50.88423157 C41.59390319 50.8473567 33.43414748 50.82856527 25.27416992 50.83984375 C20.26216488 50.84571769 15.25072269 50.82733317 10.23883247 50.79395485 C8.34080135 50.78604429 6.44270818 50.78721833 4.54469109 50.79797935 C-16.39553473 50.91166442 -16.39553473 50.91166442 -24.91113281 42.83276367 C-30.13839301 33.84187613 -31.14156146 24.40492771 -28.47363281 14.27026367 C-26.29982841 8.62253263 -21.66455466 5.06247036 -16.59472656 2.01635742 C-11.29896731 -0.1585124 -5.63793385 -0.00330528 0 0 Z " fill="#8A2EE5" transform="translate(434.4736328125,84.854736328125)"/>
<path d="M0 0 C5.28978744 4.24296635 7.87956038 8.97079074 8.91796875 15.67578125 C9.01889032 18.46633081 9.07193106 21.23291565 9.07568359 24.0234375 C9.08076431 24.85184647 9.08584503 25.68025543 9.09107971 26.5337677 C9.10175778 28.32887729 9.11038795 30.12399999 9.11719894 31.91912842 C9.1290429 34.77118731 9.14851289 37.62309849 9.1703186 40.47509766 C9.23172725 48.58311964 9.28579956 56.69112739 9.31933594 64.79931641 C9.34042462 69.76543047 9.37584447 74.73127583 9.42009354 79.69723511 C9.43414678 81.57881481 9.44295152 83.46044206 9.44614792 85.34207153 C9.47265311 99.45903868 9.82954004 112.5175419 17.91796875 124.67578125 C18.47484375 125.56265625 19.03171875 126.44953125 19.60546875 127.36328125 C29.10671702 136.86452952 41.64695557 139.81651107 54.6262207 139.83349609 C55.90795166 139.84111717 55.90795166 139.84111717 57.21557617 139.84889221 C59.06360681 139.85955698 60.91165004 139.86819227 62.75969887 139.87501144 C65.69054906 139.88685738 68.62125565 139.90632457 71.55204773 139.9281311 C79.88254991 139.98955682 88.21303561 140.04374574 96.54370117 140.07714844 C101.64710873 140.09815731 106.75025079 140.1335073 111.85350609 140.17790604 C113.79142306 140.19201324 115.72938697 140.20077647 117.66735268 140.20396042 C120.38569334 140.20889959 123.10333579 140.23213358 125.8215332 140.25927734 C127.00718117 140.25476814 127.00718117 140.25476814 128.21678162 140.25016785 C136.78123002 140.37641057 144.01386484 142.70920779 150.25390625 148.67578125 C155.29086562 154.72959158 155.40201586 161.99040069 155.20703125 169.5859375 C154.61410544 175.92383361 152.47942627 181.11432373 147.91796875 185.67578125 C143.0960088 189.01059468 138.68464867 190.79121961 132.83761597 190.81622314 C132.03354309 190.82193329 131.22947021 190.82764343 130.40103149 190.83352661 C129.52731903 190.83464447 128.65360657 190.83576233 127.75341797 190.83691406 C126.36213684 190.84436142 126.36213684 190.84436142 124.94274902 190.85195923 C121.86937718 190.86657697 118.79605718 190.87338662 115.72265625 190.87890625 C113.5743103 190.88466346 111.42596435 190.89042112 109.27761841 190.8961792 C104.76336427 190.90669183 100.24912793 190.91253099 95.73486328 190.91601562 C89.99711152 190.92146324 84.25960154 190.94540941 78.52192497 190.97398758 C74.0758907 190.99278217 69.62991231 190.99782869 65.18384171 190.9993515 C63.0718976 191.00234709 60.95995372 191.01026858 58.84804916 191.02353668 C42.79968424 191.11706052 26.90406267 190.35611019 11.60546875 184.98828125 C10.86603027 184.73264404 10.1265918 184.47700684 9.36474609 184.21362305 C-10.01939585 177.17380964 -23.27032784 163.67825779 -32.60546875 145.75 C-38.89287394 131.9748668 -41.22350389 116.13102269 -41.24316406 101.09790039 C-41.24812897 100.17484604 -41.25309387 99.25179169 -41.25820923 98.30076599 C-41.27272196 95.27081538 -41.27961315 92.24091704 -41.28515625 89.2109375 C-41.28798363 88.17038145 -41.290811 87.1298254 -41.29372406 86.05773735 C-41.30866947 80.55549748 -41.31792937 75.05328354 -41.32226562 69.55102539 C-41.3277558 63.88424649 -41.35180882 58.21770717 -41.38023758 52.55100346 C-41.39890333 48.17654229 -41.40407157 43.80213854 -41.4056015 39.42764091 C-41.40861761 37.33895998 -41.41661072 35.25027981 -41.42978668 33.16163826 C-41.44693617 30.23526056 -41.44494566 27.30946488 -41.43847656 24.38305664 C-41.44769135 23.53031158 -41.45690613 22.67756653 -41.46640015 21.79898071 C-41.4177473 14.73521172 -40.25978928 6.97666265 -35.01953125 1.80078125 C-25.76379285 -6.59758349 -10.29837341 -6.54999735 0 0 Z " fill="#8A2EE4" transform="translate(44.08203125,492.32421875)"/>
<path d="M0 0 C1.92330007 -0.00390082 3.84659929 -0.00823826 5.76989746 -0.01298523 C9.76329368 -0.02037391 13.75660133 -0.02020728 17.75 -0.01489258 C22.84471614 -0.00906268 27.93907287 -0.02614913 33.03372955 -0.04923725 C36.99045903 -0.06401193 40.9471022 -0.06484197 44.90385437 -0.06172752 C46.78237122 -0.06223737 48.66089332 -0.06741124 50.53938293 -0.07753944 C74.95540279 -0.19322211 74.95540279 -0.19322211 83.71484375 8.30078125 C89.264855 15.11518355 89.11991908 23.90114326 88.34375 32.30078125 C87.04095025 38.50170409 83.96995006 43.68444361 78.78335571 47.42662048 C71.19856593 51.48907588 62.91962534 50.85472282 54.55341721 50.81720161 C51.69182888 50.80446333 48.83119019 50.81596287 45.96963501 50.83323669 C40.91524581 50.85986228 35.86109235 50.86553598 30.80664062 50.86413574 C22.74045096 50.86190364 14.67455545 50.87645066 6.60847855 50.9197216 C3.81526933 50.9294334 1.02253782 50.92090623 -1.7706604 50.911026 C-17.24949475 50.92870441 -32.58375269 51.74866089 -44.93359375 62.234375 C-54.25986299 71.69958307 -56.79697051 84.08331618 -56.81396484 96.91723633 C-56.81904556 97.76197006 -56.82412628 98.6067038 -56.82936096 99.47703552 C-56.84002486 101.30378512 -56.84866049 103.13054745 -56.85548019 104.95731544 C-56.86732755 107.85456144 -56.88679509 110.75166226 -56.90859985 113.64884949 C-56.97002077 121.88377007 -57.02421273 130.11867395 -57.05761719 138.35375977 C-57.07862786 143.3988142 -57.11397922 148.44360015 -57.15837479 153.4885006 C-57.17248051 155.40408852 -57.18124489 157.31972389 -57.18442917 159.2353611 C-57.18936921 161.92257184 -57.2126053 164.60907671 -57.23974609 167.29614258 C-57.23673996 168.07722382 -57.23373383 168.85830505 -57.2306366 169.66305542 C-57.34402516 177.26945669 -59.05102559 184.85125752 -64.65625 190.30078125 C-72.66015479 195.81749132 -80.14887451 195.89698845 -89.65625 195.30078125 C-94.73989355 194.22888122 -99.02215146 192.03582697 -102.65625 188.30078125 C-106.61461125 181.69459727 -107.80736168 176.13217651 -107.81738281 168.44921875 C-107.82234772 167.54295746 -107.82731262 166.63669617 -107.83242798 165.70297241 C-107.84706888 162.69390097 -107.85386028 159.68488252 -107.859375 156.67578125 C-107.86513166 154.57324218 -107.87088932 152.47070312 -107.87664795 150.36816406 C-107.88716804 145.94628658 -107.89300187 141.5244273 -107.89648438 137.10253906 C-107.90192438 131.48704377 -107.9258505 125.87179647 -107.95445633 120.25637817 C-107.97327202 115.90294751 -107.9782986 111.54957381 -107.97982025 107.19610596 C-107.9828127 105.12964546 -107.99072301 103.06318511 -108.00400543 100.99676514 C-108.1720495 72.80457897 -104.29437276 44.45485708 -83.65625 23.30078125 C-73.33012125 14.14807622 -61.63735893 8.10579073 -48.40625 4.48828125 C-47.35522095 4.1958252 -47.35522095 4.1958252 -46.28295898 3.89746094 C-31.18171119 0.10500938 -15.46871945 -0.01330165 0 0 Z " fill="#8A2EE5" transform="translate(110.65625,84.69921875)"/>
<path d="M0 0 C4.4852028 3.76419942 6.14800437 9.47697554 6.84118271 15.15963364 C6.94856349 17.54980427 6.9682707 19.92341558 6.95068359 22.31591797 C6.95856903 23.66199379 6.95856903 23.66199379 6.96661377 25.03526306 C6.97973099 27.97941926 6.97109752 30.92302649 6.9609375 33.8671875 C6.96296237 35.93873191 6.96587724 38.01027563 6.96963501 40.08181763 C6.97404872 44.42082515 6.96766455 48.75964696 6.95361328 53.09863281 C6.93662934 58.606384 6.94629992 64.11369301 6.96433067 69.62142754 C6.97528633 73.90281366 6.97166703 78.1840989 6.9639473 82.46548843 C6.96197203 84.49286071 6.96430831 86.52024272 6.97138596 88.54760361 C7.01507764 104.59548418 6.3048405 120.96860622 0.875 136.25 C0.62008789 136.98420166 0.36517578 137.71840332 0.10253906 138.47485352 C-6.95501496 157.81567135 -20.94197429 171.75816286 -39.328125 180.53125 C-57.8062892 188.5167883 -77.39892021 189.3410509 -97.23046875 189.2734375 C-99.35891316 189.27546487 -101.48735688 189.27838179 -103.61579895 189.28213501 C-108.03535703 189.28651661 -112.45473115 189.28025624 -116.87426758 189.26611328 C-122.52405531 189.24890768 -128.17341891 189.25896052 -133.82319164 189.27683067 C-138.20104663 189.28768335 -142.57880128 189.28421731 -146.95665932 189.2764473 C-149.04057174 189.27445538 -151.12449345 189.27686885 -153.208395 189.28388596 C-156.11468028 189.29153784 -159.02027932 189.27984903 -161.92651367 189.26318359 C-162.77492325 189.26925629 -163.62333282 189.27532898 -164.49745178 189.28158569 C-172.11881413 189.20096581 -178.88069789 187.43180211 -184.4375 181.875 C-190.10282316 173.68324895 -190.59808191 164.9769095 -189.01171875 155.26953125 C-187.36168717 149.38813032 -184.33921026 145.46670643 -179.4375 141.875 C-171.11818386 137.65696958 -161.32618601 138.44893164 -152.26454544 138.46430969 C-149.36180299 138.46883141 -146.4596563 138.45466503 -143.55697632 138.43591309 C-137.39216023 138.39931946 -131.22740863 138.38545613 -125.0625 138.375 C-117.91847162 138.36286808 -110.77473723 138.34109014 -103.6308403 138.29499817 C-100.79044376 138.2815524 -97.95043104 138.28557573 -95.11001587 138.29040527 C-80.4595659 138.24710021 -67.70801699 136.939861 -56.21484375 126.94140625 C-46.8988974 117.45133006 -44.29707063 105.24906471 -44.27978516 92.3503418 C-44.27470444 91.51536163 -44.26962372 90.68038147 -44.26438904 89.82009888 C-44.25372603 88.01463032 -44.24509006 86.20914889 -44.23826981 84.40366173 C-44.226421 81.54001992 -44.2069531 78.67652489 -44.18515015 75.8129425 C-44.12373414 67.67360354 -44.06953907 59.53428149 -44.03613281 51.39477539 C-44.01512029 46.40807405 -43.97976754 41.42164423 -43.93537521 36.43509865 C-43.92127099 34.54183979 -43.91250546 32.64853294 -43.90932083 30.75522423 C-43.9043799 28.09914335 -43.88114166 25.44377616 -43.85400391 22.7878418 C-43.85851311 21.63024605 -43.85851311 21.63024605 -43.8631134 20.44926453 C-43.74092788 12.34541918 -41.62734119 5.27973117 -36.046875 -0.6875 C-26.26852967 -9.42155602 -9.78944436 -7.72756505 0 0 Z " fill="#8A2EE4" transform="translate(594.4375,494.125)"/>
<path d="M0 0 C1.42983215 -0.01073296 1.42983215 -0.01073296 2.8885498 -0.02168274 C3.93275085 -0.02437164 4.9769519 -0.02706055 6.05279541 -0.02983093 C7.70444702 -0.03968773 7.70444702 -0.03968773 9.38946533 -0.04974365 C13.04058904 -0.06948632 16.69167161 -0.08114129 20.34283447 -0.09111023 C21.5890583 -0.09518576 22.83528214 -0.09926128 24.11927032 -0.10346031 C30.03474807 -0.12217316 35.95021272 -0.13673809 41.86571288 -0.14507228 C48.68476048 -0.15483909 55.50348298 -0.1811459 62.32241607 -0.22157317 C68.23573251 -0.25542309 74.1489697 -0.2672215 80.06238556 -0.27127647 C82.57418269 -0.27614915 85.08597617 -0.28778238 87.59770966 -0.30631447 C91.11425171 -0.33064799 94.62994503 -0.32975094 98.14654541 -0.32279968 C99.18264954 -0.33560974 100.21875366 -0.3484198 101.28625488 -0.36161804 C107.49869749 -0.31689224 111.40769002 0.25911987 116.35845947 4.14717102 C120.23581835 9.33858888 119.7895846 14.967242 119.76251221 21.18208313 C119.76937546 22.28362228 119.77623871 23.38516144 119.78330994 24.52008057 C119.8015852 28.15502373 119.79773924 31.7895356 119.79205322 35.42451477 C119.79661461 37.95507955 119.80192006 40.48564309 119.80793762 43.01620483 C119.81687016 48.31797401 119.81467819 53.61958652 119.80450439 58.92134094 C119.79302553 65.03811722 119.80709866 71.15445492 119.83390087 77.27117342 C119.85877501 83.17011355 119.86122813 89.068918 119.85478401 94.96791267 C119.85463072 97.47132153 119.86068122 99.97473881 119.87307549 102.47811699 C119.8879709 105.98003028 119.87731771 109.48098098 119.86016846 112.98286438 C119.87467041 114.52995087 119.87467041 114.52995087 119.88946533 116.10829163 C119.82601927 122.30290751 119.23024232 126.20802814 115.35845947 131.14717102 C110.1644808 135.02794586 104.52620333 134.57827108 98.30767822 134.55122375 C97.20453278 134.55808701 96.10138733 134.56495026 94.96481323 134.57202148 C91.32506372 134.59029532 87.68574494 134.58645133 84.04595947 134.58076477 C81.51299906 134.5853259 78.98003989 134.59063127 76.44708252 134.59664917 C71.14111722 134.60558118 65.83530847 134.60338986 60.52935791 134.59321594 C54.40460955 134.58173121 48.28029889 134.59582031 42.15560818 134.62261242 C36.25132523 134.64746871 30.34717796 134.64994297 24.44284058 134.64349556 C21.93581412 134.64334216 19.42877931 134.64940158 16.92178345 134.66178703 C13.41727099 134.67666266 9.91372297 134.66604425 6.40924072 134.64888 C4.85676132 134.66338196 4.85676132 134.66338196 3.2729187 134.67817688 C-2.51837168 134.61877669 -6.18581043 134.22740183 -10.64154053 130.14717102 C-15.45004664 124.88437186 -15.20702316 119.95367371 -15.14324951 113.18818665 C-15.1486525 112.09479477 -15.15405548 111.00140289 -15.15962219 109.87487793 C-15.17211006 106.26744869 -15.15561704 102.66081739 -15.13763428 99.05342102 C-15.13778926 96.54288186 -15.13927816 94.03234245 -15.14204407 91.52180481 C-15.14342809 86.26288666 -15.13130445 81.00417451 -15.10809326 75.74531555 C-15.08148574 69.67514922 -15.07973775 63.60536521 -15.09148163 57.53516054 C-15.1022807 51.68318048 -15.09595369 45.83133948 -15.08192635 39.97937012 C-15.07741213 37.49468385 -15.07707478 35.00998635 -15.08099174 32.52529907 C-15.0839041 29.05201724 -15.06739465 25.57935847 -15.04559326 22.1061554 C-15.05009491 21.08051987 -15.05459656 20.05488434 -15.05923462 18.99816895 C-14.99029756 12.38347092 -14.09301121 7.981684 -9.64154053 2.83467102 C-6.54199625 0.21943054 -3.90523047 0.02013582 0 0 Z M13.35845947 27.14717102 C13.35845947 53.54717102 13.35845947 79.94717102 13.35845947 107.14717102 C39.42845947 107.14717102 65.49845947 107.14717102 92.35845947 107.14717102 C92.35845947 80.74717102 92.35845947 54.34717102 92.35845947 27.14717102 C66.28845947 27.14717102 40.21845947 27.14717102 13.35845947 27.14717102 Z " fill="#892EE4" transform="translate(169.64154052734375,396.8528289794922)"/>
<path d="M0 0 C1.69598076 -0.01511375 1.69598076 -0.01511375 3.42622375 -0.03053284 C7.16396979 -0.05903032 10.90131225 -0.06489035 14.63916016 -0.06811523 C17.23841519 -0.07775482 19.83766857 -0.08784718 22.43692017 -0.09837341 C27.88588934 -0.11633916 33.33469849 -0.12202246 38.78369141 -0.12011719 C45.07158325 -0.11831539 51.35870252 -0.14996527 57.6463989 -0.19734818 C63.70717137 -0.24138464 69.767526 -0.25207925 75.82847977 -0.25028801 C78.40169048 -0.25382724 80.97490697 -0.26709189 83.54801559 -0.29028511 C87.14854687 -0.31970158 90.74709256 -0.31104854 94.34765625 -0.29296875 C95.93917763 -0.31825653 95.93917763 -0.31825653 97.56285095 -0.34405518 C103.67129706 -0.26616573 107.12626475 0.56516097 111.57705116 4.85594273 C113.8554631 7.7915396 113.93101407 10.56159394 113.94366455 14.12875366 C113.94937469 15.09327957 113.95508484 16.05780548 113.96096802 17.05155945 C113.96264481 18.63660027 113.96264481 18.63660027 113.96435547 20.25366211 C113.96932037 21.36772934 113.97428528 22.48179657 113.97940063 23.62962341 C113.9940311 27.32283135 114.0008254 31.01599634 114.00634766 34.70922852 C114.01209793 37.27129111 114.01785567 39.83335369 114.02362061 42.39541626 C114.03278867 47.08324771 114.03908827 51.77106194 114.04211736 56.45890081 C114.04659834 63.35544876 114.06414981 70.25179853 114.09311795 77.14828622 C114.11734857 83.12463394 114.12506209 89.10088796 114.12679291 95.07728958 C114.12982351 97.61863916 114.13786568 100.15998783 114.15097809 102.70130539 C114.16800213 106.25406734 114.16616707 109.80634485 114.15966797 113.35913086 C114.16888275 114.41177628 114.17809753 115.46442169 114.18759155 116.54896545 C114.14889817 123.28948613 113.28880358 126.58308382 108.81651306 131.71594238 C104.19518965 134.35358286 99.82418758 133.99309801 94.59057617 133.95336914 C93.45831604 133.96037842 92.32605591 133.9673877 91.15948486 133.97460938 C87.41678337 133.99221382 83.6748381 133.98055628 79.93212891 133.96704102 C77.33047846 133.96973539 74.728829 133.97361735 72.12718201 133.9786377 C66.67395516 133.98453627 61.22101229 133.97634053 55.76782227 133.95727539 C49.47210367 133.93551818 43.1769035 133.94255107 36.88119751 133.96458101 C30.81509146 133.98495441 24.74921437 133.98275411 18.6830883 133.97105408 C16.10629135 133.96838613 13.52948116 133.97165889 10.95269966 133.98097229 C7.34986512 133.99113537 3.74802425 133.97563763 0.14526367 133.95336914 C-0.91934586 133.96146606 -1.98395538 133.96956299 -3.08082581 133.97790527 C-8.87878049 133.91154475 -12.8327173 133.67049204 -17.19677734 129.43579102 C-20.68506988 123.64362838 -20.63070969 118.21740147 -20.60083008 111.57861328 C-20.60769333 110.5077951 -20.61455658 109.43697693 -20.62162781 108.33370972 C-20.63987645 104.80640268 -20.63606094 101.27954123 -20.63037109 97.75219727 C-20.63493374 95.29271806 -20.64023956 92.83324012 -20.64625549 90.37376404 C-20.65518278 85.22340713 -20.6527676 80.07320532 -20.64282227 74.92285156 C-20.63133222 68.33102085 -20.65154731 61.73972579 -20.6807394 55.14796543 C-20.69910724 50.07008986 -20.69880773 44.99234252 -20.69310188 39.91444206 C-20.69294875 37.48442775 -20.69898664 35.05440471 -20.71139336 32.62442207 C-20.72631215 29.22339635 -20.71561856 25.82335862 -20.69848633 22.42236328 C-20.7081543 21.42419083 -20.71782227 20.42601837 -20.7277832 19.39759827 C-20.663285 13.26627284 -19.86898808 8.47166951 -16.19677734 3.43579102 C-11.77149535 -0.82234323 -5.78157135 -0.00738021 0 0 Z M7.80322266 27.43579102 C7.80322266 53.50579102 7.80322266 79.57579102 7.80322266 106.43579102 C33.87322266 106.43579102 59.94322266 106.43579102 86.80322266 106.43579102 C86.80322266 80.36579102 86.80322266 54.29579102 86.80322266 27.43579102 C60.73322266 27.43579102 34.66322266 27.43579102 7.80322266 27.43579102 Z " fill="#8A2EE5" transform="translate(334.19677734375,237.564208984375)"/>
<path d="M0 0 C1.68397888 -0.01051392 1.68397888 -0.01051392 3.40197754 -0.02124023 C7.10677953 -0.03882132 10.81081546 -0.02719621 14.515625 -0.01367188 C17.09342597 -0.01636673 19.67122595 -0.0202491 22.24902344 -0.02526855 C27.64919663 -0.0311638 33.0490828 -0.02298214 38.44921875 -0.00390625 C44.68304383 0.01786102 50.91634553 0.01080896 57.15015793 -0.01121187 C63.15913849 -0.03158489 69.16786401 -0.02938561 75.17687988 -0.01768494 C77.72855706 -0.01501739 80.28024761 -0.01828836 82.83190918 -0.02760315 C86.39871557 -0.03776637 89.96451831 -0.02226888 93.53125 0 C95.11178162 -0.01214539 95.11178162 -0.01214539 96.72424316 -0.02453613 C102.54383064 0.04274511 106.2852293 0.40710115 110.765625 4.51757812 C114.89904884 9.12236061 114.19481424 14.6951393 114.16967773 20.54663086 C114.17654099 21.65938385 114.18340424 22.77213684 114.19047546 23.91860962 C114.20877404 27.59626024 114.20490143 31.27348551 114.19921875 34.95117188 C114.20377905 37.50798176 114.20908416 40.06479042 114.21510315 42.62159729 C114.22404029 47.98061681 114.221838 53.33948137 114.21166992 58.69848633 C114.20019059 64.88512834 114.214263 71.07133676 114.2410664 77.25792164 C114.26592317 83.21933341 114.26839661 89.1806108 114.26194954 95.14207649 C114.26179612 97.67422265 114.26785745 100.20637708 114.28024101 102.73849297 C114.29511641 106.27903379 114.28449795 109.81861993 114.26733398 113.35913086 C114.28183594 114.92799294 114.28183594 114.92799294 114.29663086 116.52854919 C114.23769302 122.33385056 113.86218805 126.04576784 109.765625 130.51757812 C105.15075419 134.67162321 99.51362436 133.94661896 93.64477539 133.92163086 C92.52226883 133.92849411 91.39976227 133.93535736 90.24324036 133.94242859 C86.53312527 133.9607281 82.82343178 133.95685442 79.11328125 133.95117188 C76.53405113 133.95573212 73.95482222 133.96103723 71.37559509 133.96705627 C65.9694975 133.9759936 60.56356175 133.97379091 55.1574707 133.96362305 C48.91629855 133.95214365 42.67555619 133.96621617 36.43444067 133.99301952 C30.42067605 134.01787555 24.40713206 134.02034992 18.39330864 134.01390266 C15.83883385 134.01374924 13.28435086 134.01981109 10.72990608 134.03219414 C7.15823506 134.04706854 3.58751052 134.03645177 0.01586914 134.01928711 C-1.56701904 134.03378906 -1.56701904 134.03378906 -3.18188477 134.04858398 C-8.98383451 133.99018744 -12.8159727 133.68571782 -17.234375 129.51757812 C-21.03808831 124.24575503 -20.65953506 118.8036612 -20.62255859 112.55859375 C-20.62781555 111.46520187 -20.63307251 110.37181 -20.63848877 109.24528503 C-20.65167169 105.63798659 -20.64295636 102.03113091 -20.6328125 98.42382812 C-20.63483372 95.91328853 -20.63774555 93.4027495 -20.64151001 90.89221191 C-20.64593105 85.63333637 -20.63979628 80.37457555 -20.62548828 75.11572266 C-20.60916311 69.04556776 -20.61445217 62.97571522 -20.6309675 56.90556765 C-20.64624875 51.05360249 -20.64459712 45.20175178 -20.6358223 39.34977722 C-20.63382189 36.86508644 -20.63627395 34.38038794 -20.64326096 31.89570618 C-20.65088458 28.42245074 -20.63925758 24.94977481 -20.62255859 21.4765625 C-20.62863129 20.45092697 -20.63470398 19.42529144 -20.64096069 18.36857605 C-20.5936633 13.05496736 -20.45100973 8.97572938 -17.234375 4.51757812 C-12.01341991 -0.40360798 -6.78231838 -0.05211783 0 0 Z M7.765625 27.51757812 C7.765625 53.58757812 7.765625 79.65757812 7.765625 106.51757812 C33.835625 106.51757812 59.905625 106.51757812 86.765625 106.51757812 C86.765625 80.44757813 86.765625 54.37757813 86.765625 27.51757812 C60.695625 27.51757812 34.625625 27.51757812 7.765625 27.51757812 Z " fill="#892EE5" transform="translate(175.234375,237.482421875)"/>
<path d="M0 0 C11.55 0 23.1 0 35 0 C35.020625 5.589375 35.04125 11.17875 35.0625 16.9375 C35.071604 18.70343506 35.08070801 20.46937012 35.09008789 22.28881836 C35.09300714 23.68082605 35.09555567 25.07283459 35.09765625 26.46484375 C35.10277222 27.19384888 35.10788818 27.922854 35.11315918 28.6739502 C35.11347011 30.44970076 35.06228515 32.22534208 35 34 C34 35 34 35 30.76538086 35.11352539 C29.33185875 35.11327438 27.89833058 35.10771608 26.46484375 35.09765625 C25.46378601 35.09614563 25.46378601 35.09614563 24.44250488 35.09460449 C21.9408192 35.08935808 19.43915794 35.07539691 16.9375 35.0625 C8.5534375 35.0315625 8.5534375 35.0315625 0 35 C0 23.45 0 11.9 0 0 Z " fill="#892EE5" transform="translate(364,287)"/>
<path d="M0 0 C11.55 0 23.1 0 35 0 C35 11.22 35 22.44 35 34 C23.45 34 11.9 34 0 34 C0 22.78 0 11.56 0 0 Z " fill="#892EE5" transform="translate(364,447)"/>
<path d="M0 0 C11.22 0 22.44 0 34 0 C34 11.55 34 23.1 34 35 C22.78 35 11.56 35 0 35 C0 23.45 0 11.9 0 0 Z " fill="#8A2EE4" transform="translate(205,287)"/>
<path d="M0 0 C11.22 0 22.44 0 34 0 C34 11.22 34 22.44 34 34 C22.78 34 11.56 34 0 34 C0 22.78 0 11.56 0 0 Z " fill="#8A2EE4" transform="translate(410,493)"/>
<path d="M0 0 C11.22 0 22.44 0 34 0 C34 11.22 34 22.44 34 34 C22.78 34 11.56 34 0 34 C0 22.78 0 11.56 0 0 Z " fill="#8A2EE5" transform="translate(318,493)"/>
<path d="M0 0 C11.22 0 22.44 0 34 0 C34 11.22 34 22.44 34 34 C22.78 34 11.56 34 0 34 C0 22.78 0 11.56 0 0 Z " fill="#8A2EE5" transform="translate(205,447)"/>
<path d="M0 0 C11.22 0 22.44 0 34 0 C34 11.22 34 22.44 34 34 C22.78 34 11.56 34 0 34 C0 22.78 0 11.56 0 0 Z " fill="#892EE4" transform="translate(410,401)"/>
<path d="M0 0 C11.22 0 22.44 0 34 0 C34 11.22 34 22.44 34 34 C22.78 34 11.56 34 0 34 C0 22.78 0 11.56 0 0 Z " fill="#8A2EE5" transform="translate(318,401)"/>
</svg>
